
<svg width="20" height="20" viewBox="0 0 20 20" fill="none" xmlns="http://www.w3.org/2000/svg">
    <path d="M15.0975 13.7001L15.0425 13.7699L15.1053 13.8327L18.7561 17.4835C18.7563 17.4837 18.7565 17.4839 18.7567 17.4841C18.9203 17.6538 19.0107 17.8809 19.0087 18.1165C19.0066 18.3525 18.912 18.5782 18.7451 18.7451C18.5783 18.912 18.3525 19.0066 18.1165 19.0087C17.8809 19.0107 17.6538 18.9202 17.4841 18.7567C17.4839 18.7565 17.4837 18.7563 17.4835 18.7561L13.8327 15.1053L13.7699 15.0425L13.7001 15.0975C12.6481 15.9266 11.413 16.492 10.098 16.7467C8.78299 17.0014 7.42613 16.938 6.14062 16.5616C4.85511 16.1853 3.67825 15.507 2.70821 14.5833C1.73816 13.6596 1.00307 12.5174 0.564269 11.2518C0.125464 9.98628 -0.00433311 8.63414 0.185706 7.30823C0.375745 5.98232 0.88011 4.72108 1.65672 3.62973C2.43333 2.53839 3.45967 1.64859 4.65011 1.03457C5.84054 0.420548 7.16056 0.100114 8.50002 0.1C10.0772 0.0998941 11.6226 0.543823 12.9592 1.38098C14.2959 2.21814 15.3699 3.41471 16.0583 4.83374C16.7466 6.25277 17.0216 7.83694 16.8517 9.40495C16.6818 10.973 16.0738 12.4615 15.0975 13.7001ZM8.50001 1.9C6.74958 1.9 5.07084 2.59535 3.8331 3.8331C2.59536 5.07084 1.90001 6.74957 1.90001 8.5C1.90001 10.2504 2.59536 11.9292 3.8331 13.1669C5.07084 14.4046 6.74958 15.1 8.50001 15.1C10.2504 15.1 11.9292 14.4046 13.1669 13.1669C14.4047 11.9292 15.1 10.2504 15.1 8.5C15.1 6.74957 14.4047 5.07084 13.1669 3.8331C11.9292 2.59535 10.2504 1.9 8.50001 1.9ZM8.50001 3.1C9.93218 3.1 11.3057 3.66893 12.3184 4.68162C13.3311 5.69432 13.9 7.06783 13.9 8.5C13.9 9.93217 13.3311 11.3057 12.3184 12.3184C11.3057 13.3311 9.93218 13.9 8.50001 13.9C7.06784 13.9 5.69433 13.3311 4.68163 12.3184C3.66894 11.3057 3.10001 9.93217 3.10001 8.5C3.10001 7.06783 3.66894 5.69432 4.68163 4.68162C5.69433 3.66893 7.06784 3.1 8.50001 3.1Z" fill="#C6D7E1" stroke="black" style="fill:#C6D7E1;fill:color(display-p3 0.7765 0.8431 0.8824);fill-opacity:1;stroke:black;stroke-opacity:1;" stroke-width="0.2"/>
</svg>
