<svg width="66" height="66" viewBox="0 0 66 66" fill="none" xmlns="http://www.w3.org/2000/svg">
    <rect width="66" height="66" rx="33" fill="#FAF2E9" style="fill:#FAF2E9;fill:color(display-p3 0.9804 0.9490 0.9137);fill-opacity:1;"/>
    <path d="M27.3429 24.5145C27.3429 22.7641 28.0382 21.0854 29.276 19.8476C30.5137 18.6099 32.1924 17.9145 33.9429 17.9145C35.6933 17.9145 37.372 18.6099 38.6098 19.8476C39.8475 21.0854 40.5429 22.7641 40.5429 24.5145C40.5429 26.265 39.8475 27.9437 38.6098 29.1814C37.372 30.4192 35.6933 31.1145 33.9429 31.1145C32.1924 31.1145 30.5137 30.4192 29.276 29.1814C28.0382 27.9437 27.3429 26.265 27.3429 24.5145ZM20.3997 39.2571C21.9911 37.6657 24.1495 36.7717 26.4 36.7717H41.4857C43.7363 36.7717 45.8946 37.6657 47.486 39.2571C49.0774 40.8485 49.9714 43.0068 49.9714 45.2574C49.9714 46.5077 49.4748 47.7068 48.5907 48.5909C47.7066 49.475 46.5075 49.9717 45.2571 49.9717H22.6286C21.3783 49.9717 20.1792 49.475 19.2951 48.5909C18.411 47.7068 17.9143 46.5077 17.9143 45.2574C17.9143 43.0068 18.8083 40.8485 20.3997 39.2571Z" fill="#EADED5" stroke="#CDAD93" style="fill:#EADED5;fill:color(display-p3 0.9176 0.8706 0.8353);fill-opacity:1;stroke:#CDAD93;stroke:color(display-p3 0.8049 0.6787 0.5762);stroke-opacity:1;" stroke-width="1.88571"/>
</svg>
